<?xml version="1.0" encoding="utf-8"?>
<!-- Generator: Adobe Illustrator 16.0.4, SVG Export Plug-In . SVG Version: 6.00 Build 0)  -->
<!DOCTYPE svg PUBLIC "-//W3C//DTD SVG 1.1//EN" "http://www.w3.org/Graphics/SVG/1.1/DTD/svg11.dtd">
<svg version="1.1" xmlns="http://www.w3.org/2000/svg" xmlns:xlink="http://www.w3.org/1999/xlink" x="0px" y="0px" width="590px"
	 height="84px" viewBox="0 0 590 84" enable-background="new 0 0 590 84" xml:space="preserve">
<g id="Layer_1">
	<g>
		<g>
			<path fill-rule="evenodd" clip-rule="evenodd" fill="#444951" d="M271.019,60.659c-1.68,0-3.24,0.721-5.16,2.641
				c-5.76,5.879-10.56,7.919-19.439,7.919c-15.959,0-23.159-8.52-23.159-29.519c0-19.799,7.2-29.639,23.159-29.639
				c8.76,0,13.919,3,18.839,8.399c1.56,1.68,3.24,2.4,4.919,2.4c3.6,0,6.48-2.88,6.48-6.359c0-1.32-0.36-2.52-1.32-3.96
				c-4.919-7.2-14.399-12.959-28.918-12.959c-23.879,0-37.559,13.679-37.559,42.118c0,29.398,13.679,41.998,37.559,41.998
				c12.839,0,24.119-5.279,29.879-12.959c0.72-0.96,1.2-2.16,1.2-3.6C277.498,63.539,274.618,60.659,271.019,60.659z M442.978,38.46
				c4.92-2.4,8.88-8.4,8.88-16.319c0-11.04-6.479-20.879-24.599-20.879h-21.6c-3.84,0-6.96,3.12-6.96,6.96v66.837
				c0,3.84,3.12,6.96,6.96,6.96h23.759c17.279,0,26.039-9.6,26.039-24.239C455.457,48.42,451.978,41.94,442.978,38.46z
				 M412.619,13.741h14.64c7.56,0,10.679,3.96,10.679,10.2c0,6-3.119,10.319-10.679,10.319h-14.64V13.741z M429.418,69.539h-16.799
				V46.021h16.799c7.92,0,11.88,4.439,11.88,11.759C441.298,64.979,437.938,69.539,429.418,69.539z M332.087,49.897
				c10.444-2.304,16.691-12.762,16.691-23.557c0-13.56-9.119-25.079-25.318-25.079h-22.919c-3.84,0-6.96,3.12-6.96,6.96v67.797
				c0,3.84,3.12,6.96,6.96,6.96c3.839,0,6.959-3.12,6.959-6.96V51.06h0.039V38.82H307.5V13.741h15.84c7.8,0,11.039,6.12,11.039,12.6
				c0,6.36-3.239,12.479-10.68,12.479h-0.562c-1.907-0.749-4.137-0.587-5.97,0.637c-2.976,1.986-3.777,6.008-1.791,8.983
				l21.705,31.635c1.986,2.976,6.008,3.777,8.983,1.791s3.777-6.009,1.792-8.984L332.087,49.897z M152.34,21.541
				c0-4.8,3.72-9.479,13.68-9.479c6.84,0,13.08,2.76,16.799,6.359c1.8,1.68,3.48,2.64,5.16,2.64c3.6,0,6.48-2.88,6.48-6.36
				c0-1.44-0.48-2.76-1.2-3.84c-4.8-6.839-15.239-11.279-27.239-11.279c-19.08,0-27.599,10.08-27.599,21.959
				c0,28.919,43.798,20.879,43.798,38.398c0,7.439-5.28,11.04-16.199,11.04c-8.28,0-14.64-4.08-19.679-9.12
				c-1.2-1.2-2.64-2.64-5.28-2.64c-3.48,0-6.36,2.88-6.36,6.479c0,1.2,0.36,2.4,0.96,3.359c4.68,7.561,16.08,14.64,30.359,14.64
				c19.799,0,30.119-9.119,30.119-23.759C196.139,29.94,152.34,37.26,152.34,21.541z M517.377,69.539h-31.799V47.46h22.679
				c3.36,0,6.12-2.76,6.12-6.12s-2.76-6.12-6.12-6.12h-22.679V13.741h30.479c3.48,0,6.24-2.76,6.24-6.24
				c0-3.479-2.76-6.24-6.24-6.24h-37.438c-3.84,0-6.96,3.12-6.96,6.96v66.837c0,3.84,3.12,6.96,6.96,6.96h38.759
				c3.479,0,6.239-2.76,6.239-6.24C523.616,72.299,520.856,69.539,517.377,69.539z M372.54,0.302c-3.84,0-6.959,3.12-6.959,6.96
				v68.757c0,3.84,3.119,6.96,6.959,6.96s6.96-3.12,6.96-6.96V7.262C379.5,3.422,376.38,0.302,372.54,0.302z M593.356,72.882
				l-15.755-22.963c10.517-2.249,16.814-12.742,16.814-23.578c0-13.56-9.12-25.079-25.319-25.079h-22.919
				c-3.84,0-6.96,3.12-6.96,6.96v67.797c0,3.84,3.12,6.96,6.96,6.96s6.96-3.12,6.96-6.96v-20.72h-0.099V34.596h0.099V13.741h15.839
				c7.8,0,11.04,6.12,11.04,12.6c0,6.36-3.24,12.479-10.68,12.479h-0.699c-1.907-0.749-4.137-0.587-5.97,0.637
				c-2.976,1.986-3.777,6.008-1.791,8.983l21.704,31.635c1.986,2.976,6.009,3.777,8.984,1.791S595.343,75.857,593.356,72.882z"/>
		</g>
	</g>
</g>
<g id="Layer_2">
	<g>
		<g>
			<path fill-rule="evenodd" clip-rule="evenodd" fill="#12A2B7" d="M15.68,21.099c5.049,0,9.143-4.094,9.143-9.143
				c0-5.05-4.094-9.144-9.143-9.144c-5.05,0-9.144,4.094-9.144,9.144C6.537,17.005,10.63,21.099,15.68,21.099z M39.245,21.059
				h39.731c5.07,0,9.181-4.11,9.181-9.181c0-5.071-4.11-9.181-9.181-9.181H39.245c-5.07,0-9.181,4.11-9.181,9.181
				C30.064,16.948,34.175,21.059,39.245,21.059z M15.968,32.983c-5.071,0-9.181,4.11-9.181,9.181c0,5.07,4.11,9.181,9.181,9.181
				h19.791c5.07,0,9.181-4.11,9.181-9.181c0-5.071-4.11-9.181-9.181-9.181H15.968z M78.977,32.983H59.812
				c-5.07,0-9.181,4.11-9.181,9.181c0,5.07,4.11,9.181,9.181,9.181h19.165c5.07,0,9.181-4.11,9.181-9.181
				C88.157,37.093,84.047,32.983,78.977,32.983z M79.009,63.868c-5.05,0-9.143,4.094-9.143,9.144s4.093,9.144,9.143,9.144
				s9.144-4.094,9.144-9.144S84.059,63.868,79.009,63.868z M55.444,63.753H15.712c-5.07,0-9.181,4.11-9.181,9.181
				s4.111,9.181,9.181,9.181h39.732c5.07,0,9.18-4.11,9.18-9.181S60.515,63.753,55.444,63.753z"/>
		</g>
	</g>
</g>
</svg>
